HIERARCHY
ROOT Hips
{
  OFFSET 38.9364 92.4223 -323.81
  CHANNELS 6 Xposition Yposition Zposition Zrotation Xrotation Yrotation
  JOINT ToSpine
  {
    OFFSET -0.0105055 1.38907 -7.13956
    CHANNELS 3 Zrotation Xrotation Yrotation
    JOINT Spine
    {
      OFFSET 0.0105055 10 1
      CHANNELS 3 Zrotation Xrotation Yrotation
      JOINT Spine1
      {
        OFFSET 0 12 1.60637
        CHANNELS 3 Zrotation Xrotation Yrotation
        JOINT Neck
        {
          OFFSET 0 27 2.26658
          CHANNELS 3 Zrotation Xrotation Yrotation
          JOINT Head
          {
            OFFSET 0 9 2.12705
            CHANNELS 3 Zrotation Xrotation Yrotation
            End Site
            {
              OFFSET 0 11 2
            }
          }
        }
        JOINT LeftShoulder
        {
          OFFSET 8 19.6109 2.86452
          CHANNELS 3 Zrotation Xrotation Yrotation
          JOINT LeftArm
          {
            OFFSET 12 1 0.681055
            CHANNELS 3 Zrotation Xrotation Yrotation
            JOINT LeftForeArm
            {
              OFFSET 19 0 -1.52608
              CHANNELS 3 Zrotation Xrotation Yrotation
              JOINT LeftHand
              {
                OFFSET 23 0 0
                CHANNELS 3 Zrotation Xrotation Yrotation
                End Site
                {
                  OFFSET 10 0 0
                }
              }
            }
          }
        }
        JOINT RightShoulder
        {
          OFFSET -8 19.6109 2.86452
          CHANNELS 3 Zrotation Xrotation Yrotation
          JOINT RightArm
          {
            OFFSET -12 1 0.681055
            CHANNELS 3 Zrotation Xrotation Yrotation
            JOINT RightForeArm
            {
              OFFSET -19 0 -1.52608
              CHANNELS 3 Zrotation Xrotation Yrotation
              JOINT RightHand
              {
                OFFSET -23 0 0
                CHANNELS 3 Zrotation Xrotation Yrotation
                End Site
                {
                  OFFSET -10 0 0
                }
              }
            }
          }
        }
      }
    }
  }
  JOINT LeftUpLeg
  {
    OFFSET 9 -7.17245 0
    CHANNELS 3 Zrotation Xrotation Yrotation
    JOINT LeftLeg
    {
      OFFSET 0 -44.1113 0
      CHANNELS 3 Zrotation Xrotation Yrotation
      JOINT LeftFoot
      {
        OFFSET 0 -36.1829 0
        CHANNELS 3 Zrotation Xrotation Yrotation
        JOINT LeftToeBase
        {
          OFFSET 0 -4.84184 13
          CHANNELS 3 Zrotation Xrotation Yrotation
          End Site
          {
            OFFSET 0 1 6
          }
        }
      }
    }
  }
  JOINT RightUpLeg
  {
    OFFSET -9 -7.17245 0
    CHANNELS 3 Zrotation Xrotation Yrotation
    JOINT RightLeg
    {
      OFFSET 0 -44.0551 0
      CHANNELS 3 Zrotation Xrotation Yrotation
      JOINT RightFoot
      {
        OFFSET 0 -36.1469 0
        CHANNELS 3 Zrotation Xrotation Yrotation
        JOINT RightToeBase
        {
          OFFSET 0 -4.92256 13
          CHANNELS 3 Zrotation Xrotation Yrotation
          End Site
          {
            OFFSET 0 1 6
          }
        }
      }
    }
  }
}
MOTION
Frames:	17
Frame Time:	0.0333333
12.7769 98.0481 10.5296 -4.72957 8.36437 -106.03 0 0 0 7.30936 3.13787 -0.0346659 -2.01844 4.75384 0.434793 12.1846 3.83425 -27.2637 -1.06352 -11.9079 -23.5412 -32.4313 3.7389 -6.19419 -37.8586 9.82498 -12.5355 -2.66158 -12.6562 -6.34903 -8.93432 0.341154 -4.36467 25.8817 5.91481 14.811 49.8325 8.05707 2.04858 1.23966 -0.24849 12.4455 1.03102 0.0322034 3.57793 19.0509 0.0842547 20.9934 -1.49811e-007 52.0123 5.18224 7.60059 -14.3621 0.959006 0.726281 1.18073 -3.22776 10.2477 4.92462 -4.09939 3.59882 4.66345 -0.810265 -13.8248 0.166492 0.0201842 3.13562 -11.519 -2.21618 
12.2882 97.679 10.3675 -4.51209 9.47357 -108.781 0 0 0 7.8686 3.5586 -0.312606 -1.13703 4.64218 0.193226 11.8542 4.52382 -26.9829 -0.84434 -11.7557 -23.3526 -32.8227 3.61912 -5.79029 -37.2726 9.81218 -14.3062 -2.52527 -11.1859 -6.26145 -8.7957 0.376383 -4.89098 25.996 6.03733 15.1217 49.332 8.14992 1.44363 1.00658 0.520876 12.7029 1.488 0.0558437 4.29828 20.4337 -1.49082 17.2009 3.40812e-008 53.8797 -3.73619 7.748 -15.0656 1.02609 0.671643 -2.19025 -2.39674 11.2604 4.62034 -3.69532 3.47582 6.94832 1.66514 -15.9345 -0.398506 -0.0557744 3.38891 -12.4657 -3.2591 
11.9588 97.4264 10.4891 -3.8921 9.67591 -111.768 0 0 0 8.48604 3.9264 -0.496769 -1.68207 4.29894 0.290443 12.5817 4.75267 -26.6845 -1.30925 -12.0045 -22.7534 -32.0348 3.69657 -6.18425 -38.0774 9.55431 -14.2571 -3.01735 -13.9709 -9.00335 -7.41723 0.292346 -4.50793 26.4009 6.12493 15.165 49.1225 8.11272 1.37872 0.941405 0.731521 12.6157 1.49516 0.0481394 3.68801 20.3931 -3.55413 13.6052 -2.88419e-007 54.0948 -8.12577 3.06872 -18.6085 0.502872 0.698908 -0.529111 -2.83341 11.3098 3.48129 -3.51144 3.35199 9.21067 3.65957 -16.8303 -1.12941 -0.167087 3.53216 -13.0492 -3.40671 
11.6073 97.1728 10.67 -2.8854 9.7955 -115.446 0 0 0 8.9291 3.79011 -0.316967 -1.4844 4.03522 0.514586 12.1209 5.34112 -26.1589 -1.36874 -11.9714 -22.334 -32.4514 3.76543 -6.25763 -37.5354 12.51 -14.7465 -5.24938 -22.0458 -11.103 -3.88877 0.172809 -5.08692 26.1268 6.02492 15.0127 49.3128 8.82753 1.68695 1.62054 -0.943487 12.0039 0.739832 0.0284477 4.40399 20.316 -5.39485 11.3998 -1.38833e-007 52.6196 -7.34662 -0.161222 -19.6548 -0.0279274 0.381555 -1.57903 -1.2345 11.2499 2.05062 -3.1348 3.24403 11.6174 7.1494 -19.0228 -1.06106 -0.177782 4.0052 -15.0276 -4.20202 
11.1354 97.1247 10.7777 -2.35392 10.0777 -119.578 0 0 0 9.25534 3.95562 -0.0932831 -1.1495 4.27267 0.696209 10.9547 5.34141 -25.0445 -1.20495 -11.2636 -21.5691 -33.2046 3.71843 -5.95133 -36.7542 10.1839 -15.139 -2.02999 -9.74391 -11.0277 -8.58995 0.265696 -3.53668 25.7192 5.96666 15.0581 49.2691 9.32777 2.08994 1.70124 -0.868301 11.8077 0.61728 0.0241223 4.47573 20.442 -6.05572 10.0596 1.71559e-007 49.9702 -4.45145 -2.01343 -20.3076 -0.360634 0.509936 -0.42031 -2.04929 10.9819 2.13653 -3.17863 3.33054 12.1964 11.307 -19.1036 -1.04163 -0.175282 3.97983 -14.9317 -4.47322 
10.6672 97.0422 10.9849 -1.70938 10.2432 -123.644 0 0 0 10.1271 4.24888 0.0537718 -1.84673 4.19503 1.06182 10.7728 6.1075 -24.16 -0.98683 -11.9635 -20.7546 -32.789 3.748 -6.12831 -37.2866 10.2624 -14.8252 -1.8723 -9.16348 -12.2564 -8.72266 0.280794 -3.68047 25.8337 5.88901 14.7583 49.3018 8.99623 2.67688 1.1713 1.31132 11.6305 0.39424 0.0135858 3.94733 20.4019 -6.71287 8.41177 1.27575e-008 46.8978 -2.14868 -0.675273 -20.3942 -0.121467 0.339832 -0.107432 -1.3974 10.666 1.66377 -3.15175 3.25963 13.5229 15.1304 -19.1575 -1.17409 -0.198141 3.99487 -14.9852 -4.2302 
10.2559 96.8364 11.1409 -0.857427 10.5564 -127.248 0 0 0 10.5635 4.39457 -0.1729 -1.74037 4.14545 0.837627 10.6538 6.02719 -23.1507 -1.51723 -11.4212 -19.6737 -32.4371 3.68184 -6.04533 -37.8501 10.2005 -14.2328 -1.75404 -9.18708 -12.9804 -8.38691 0.290421 -3.95941 26.1974 6.09393 15.1827 48.9666 9.72417 2.40777 1.1358 0.778763 12.8284 0.109599 0.00345923 3.6156 21.1101 -7.72272 6.668 1.26658e-007 44.1655 -2.11914 -1.36953 -22.4645 -0.271989 0.593626 1.54537 -2.75487 10.8355 1.26391 -2.83803 3.17018 14.4067 18.1832 -19.9914 -1.23767 -0.218147 4.0564 -15.2474 -4.27111 
9.84056 96.5765 11.4042 0.336429 10.4063 -130.701 0 0 0 10.4175 4.34499 -0.0820488 -0.521053 3.52759 0.671407 9.708 6.77127 -22.0801 -1.11252 -11.6417 -18.9397 -33.3144 3.79495 -6.11812 -37.2791 10.0511 -13.8359 -1.64374 -8.46358 -12.506 -9.66959 0.32396 -3.82862 25.907 6.00117 15.0604 49.0036 9.20174 2.11766 0.976242 0.677077 13.3208 0.638691 0.0183663 3.29428 21.789 -9.19501 5.35796 -6.79362e-008 41.3471 -4.4238 -0.123414 -21.4892 -0.0234188 0.561248 -2.76483 -1.76442 10.8814 -0.172297 -2.50743 3.01838 16.1466 20.2231 -20.983 -1.71536 -0.317683 4.30704 -16.1735 -2.83407 
9.37923 96.281 11.5701 1.19961 10.8595 -134.067 0 0 0 11.0188 4.89391 -0.459727 -0.393245 3.03949 0.339428 9.79067 6.99864 -20.9814 -1.66325 -11.4842 -17.7007 -32.963 3.65924 -5.8591 -37.8402 9.53306 -12.9822 -1.37347 -7.69609 -12.1435 -10.4489 0.337167 -3.68617 26.4552 6.20057 15.3621 48.8383 9.25188 1.96142 0.952915 0.4752 13.6269 0.590003 0.0183876 3.5701 23.0349 -9.87958 3.89623 -1.20701e-007 39.0194 -8.48803 -1.91562 -22.4897 -0.380896 0.502666 -2.26405 -1.61359 11.2661 -0.756994 -2.15952 2.91906 17.9584 23.1866 -21.4894 -2.50175 -0.474804 4.09496 -15.3965 -4.03989 
8.80549 95.9857 11.728 1.76316 11.6264 -137.136 0 0 0 11.5394 5.16288 -0.562655 0.28596 3.34179 0.189351 9.32908 7.5439 -20.1098 -1.64298 -11.778 -16.9685 -33.0054 3.75529 -6.09348 -37.2352 10.5559 -13.864 -1.72305 -7.29721 -8.90322 -11.3339 0.415112 -4.18145 26.2991 6.03748 14.9573 49.3854 10.2426 1.96577 2.3495 -4.29967 14.0012 -1.20818 -0.0421288 3.99401 24.0411 -9.96046 3.17714 3.51134e-007 37.056 -12.8727 -1.72035 -22.6022 -0.343819 0.4637 -4.59673 -0.812824 11.541 -0.715553 -2.16728 2.85583 19.48 25.8489 -22.095 -2.92208 -0.570627 4.11413 -15.4605 -3.77835 
8.31794 95.7629 11.8165 2.93629 11.7072 -139.934 0 0 0 12.007 4.52527 -0.690713 0.669665 3.52621 -0.0719608 9.55528 7.95394 -19.758 -2.36037 -11.363 -16.4044 -32.9977 3.80611 -6.22472 -37.3661 12.3333 -13.4904 -2.10529 -7.58827 -7.4734 -10.0711 0.332069 -3.76728 26.4885 6.0638 14.9346 49.3776 9.8079 1.39593 1.60462 -1.92195 14.024 0.245476 0.00937592 4.37468 24.9236 -10.7835 2.63568 3.03249e-007 35.1792 -16.345 -0.281192 -23.1763 -0.0576597 0.584323 -4.01691 -1.56653 11.8961 -1.76364 -1.8073 2.70035 21.2216 28.1759 -21.4164 -4.20312 -0.795156 3.69717 -13.7271 -3.68646 
7.89061 95.7919 11.8278 3.25566 11.8423 -142.52 0 0 0 11.5362 4.72835 -0.789745 1.20343 3.39037 -0.315665 9.19962 8.48916 -19.2781 -2.39255 -11.1592 -16.0099 -33.8 3.85285 -6.14475 -36.3601 14.3796 -13.629 -2.88481 -9.73202 -5.01933 -10.0644 0.323225 -3.66945 26.5471 6.08721 14.9731 49.5867 9.1624 0.648027 1.52176 -1.67444 13.7814 0.935947 0.0374285 4.57998 25.0819 -11.0038 1.59012 5.77211e-007 34.2379 -21.6559 -5.67956 -22.2691 -1.11872 -0.133084 -1.13293 0.898053 11.7762 -1.35805 -1.59982 2.67337 21.2598 30.3398 -22.66 -3.7162 -0.744845 3.85867 -14.3982 -3.70371 
7.44006 95.6613 11.907 4.05697 11.9353 -144.939 0 0 0 11.7459 4.55721 -0.871986 1.66937 3.28371 -0.498917 9.26053 8.91925 -19.3947 -3.40265 -11.2155 -15.9706 -33.7254 3.81043 -6.05696 -37.312 14.8101 -12.551 -3.07211 -9.77057 -4.78738 -9.99784 0.298461 -3.41117 26.3454 5.98146 14.7639 50.1076 8.43789 0.0529533 1.60825 -1.73543 13.0032 0.93966 0.0355279 4.33046 25.2637 -11.407 0.549347 1.34267e-006 34.6193 -27.1908 -6.14928 -20.9039 -1.13542 0.299281 -0.597028 -1.11274 12.2136 -1.78687 -0.939172 2.2048 22.1773 31.8398 -22.817 -4.17507 -0.842844 3.80601 -14.1775 -3.51061 
6.99059 95.4226 11.9233 5.45573 12.2014 -147.303 0 0 0 12.6927 3.60691 -0.872803 2.04532 3.89426 -0.595422 9.09972 9.09285 -19.6429 -3.92761 -10.9374 -16.1988 -33.8155 3.7924 -5.99025 -38.1002 14.8804 -12.5686 -3.19617 -9.86267 -3.08044 -9.38749 0.304006 -3.70137 26.3163 5.94557 14.6714 50.4375 7.75641 -0.968057 1.63759 -2.00529 12.7402 0.715044 0.0259556 4.15772 25.9762 -11.543 -1.10522 -1.60203e-006 36.2338 -27.8197 -6.35274 -25.0253 -1.41121 0.058235 3.84962 -1.12836 13.2242 -2.32737 -0.232555 1.95078 23.0103 33.4909 -22.3327 -4.65976 -0.920301 3.59396 -13.2967 -3.7181 
6.65092 95.3878 11.8657 6.40883 12.0723 -149.235 0 0 0 12.7679 2.97892 -0.999227 2.3696 3.94573 -0.895168 8.8179 9.21884 -19.7039 -3.68027 -10.6945 -16.381 -33.875 3.73383 -5.83015 -39.4264 14.4131 -11.1524 -3.05664 -9.22829 -3.19484 -9.69877 0.300558 -3.54151 26.5027 6.01153 14.7704 50.1799 7.18996 -2.34871 1.46071 -1.41668 12.4911 1.59306 0.0532938 3.83184 25.8337 -10.9435 -3.01679 -4.98655e-007 36.4414 -23.2549 -4.63592 -24.6099 -1.01174 0.339822 -0.807984 -1.23669 13.7019 -2.08496 0.271425 2.20695 21.8983 33.9943 -24.6555 -3.05635 -0.668094 4.29461 -16.1204 -2.7914 
6.39048 95.4848 11.7759 7.16878 11.6765 -150.824 0 0 0 11.8 1.74943 -0.90218 3.92895 4.6154 -1.27401 8.43056 8.55182 -19.8431 -3.97822 -9.89103 -16.5962 -34.658 3.74915 -5.68625 -39.9981 14.6961 -10.0849 -3.07459 -9.13489 -4.16605 -9.48155 0.229692 -2.76913 25.6302 5.66867 14.1912 50.5807 7.14243 -2.34259 1.65679 -0.857865 10.8182 1.62163 0.0467408 3.30178 25.5055 -10.4374 -5.31215 2.0493e-007 36.1829 -19.7923 -6.2764 -26.1077 -1.45662 0.260367 1.53599 -1.42782 13.9498 -2.43986 0.781605 1.87445 21.8991 35.9854 -22.9218 -3.81068 -0.772858 3.66036 -13.5665 -4.2616 
6.29354 95.343 11.6873 8.0835 11.3543 -152.269 0 0 0 10.6465 1.45545 -0.926886 5.44442 4.13703 -1.63731 9.40415 8.26805 -20.5594 -4.8532 -10.0305 -16.8719 -33.8882 3.66773 -5.66246 -41.9839 13.9199 -9.15022 -2.92364 -9.32493 -3.54123 -9.22242 0.28156 -3.48985 27.0131 6.01926 14.5256 49.6392 5.48047 -4.33454 1.38312 -1.0092 10.8553 1.48535 0.0504891 3.89341 25.7864 -10.5773 -6.0456 1.6671e-007 36.9552 -17.5774 -6.32721 -26.8043 -1.50905 0.322878 0.716033 -1.50674 14.6252 -2.95729 1.4334 1.90218 21.9793 36.6332 -24.0627 -3.27221 -0.697583 3.9325 -14.7345 -4.62141 
